<svg xmlns:xlink="http://www.w3.org/1999/xlink" xmlns="http://www.w3.org/2000/svg" viewBox="0 0 123.668 61.722" width="124"  height="62" >
  <g data-name="Group 703" fill="#fff">
    <g data-name="Group 701">
      <path data-name="Path 610" d="M9.909 35.823C4.754 32.604 1 30.195 1 24.905s4.821-9.306 11.717-9.306a23.38 23.38 0 0 1 8.7 1.674c.2 1.272.47 6.227.47 7.9l-.47.133c-4.686-7.029-6.9-8.435-9.239-8.435A3.533 3.533 0 0 0 8.3 20.554c0 2.745 2.075 4.351 5.289 6.292 6.16 3.616 9.842 6.361 9.842 11.382 0 6.161-5.423 9.977-12.655 9.977A26.759 26.759 0 0 1 1 46.465a86.983 86.983 0 0 1-1-9.91l.469-.132c4.821 7.231 8.1 10.511 11.65 10.511a3.728 3.728 0 0 0 4.017-4.018c0-2.812-2.143-4.619-6.227-7.1"></path>
      <path data-name="Path 611" d="M47.539 16.537v-7.5a3.269 3.269 0 0 0-.8-2.477l-1.942-2.21v-.2L57.046-.001l.2.133c-.134 1.808-.2 4.218-.2 5.022v38.567c0 1.606.267 1.874 1.942 1.874l1.539-.067.068.6-13.388 2.48-.134-.2c.134-.8.2-1.676.268-2.611l.133-1.808-.267-.135c-2.812 2.946-6.16 4.487-9.106 4.487-6.963 0-11.851-6.093-11.851-15.2-.003-9.442 6.357-17.542 15.932-17.542a14.582 14.582 0 0 1 5.357.937m-11.45 14.263c0 8.369 3.883 12.923 8.169 12.923a6.927 6.927 0 0 0 3.281-.8l.133-18.623c0-5.624-2.276-7.3-4.753-7.3-3.549 0-6.83 5.09-6.83 13.793"></path>
      <path data-name="Path 612" d="m88.516 39.902.2.336c-2.746 5.088-7.164 8.1-12.789 8.1-9.106 0-14.529-7.366-14.529-15.736 0-9.037 6.629-17.14 17.14-17.14 6.294 0 10.378 2.478 10.378 6.093a4.532 4.532 0 0 1-4.353 4.419c-.869 0-1.4-.267-2.476-1.874l-3.748-6.16c-.737-1-1-1.206-1.674-1.206-2.544 0-6.427 4.084-6.427 12.187 0 8.771 5.022 13.86 11.114 13.86a10.15 10.15 0 0 0 7.164-2.881"></path>
      <path data-name="Path 613" d="M123.669 31.601a16.921 16.921 0 0 1-4.754 12.052 16.083 16.083 0 0 1-11.918 4.687c-10.177 0-16-7.9-16-16.2a16.866 16.866 0 0 1 4.754-11.985 16.082 16.082 0 0 1 11.918-4.688c10.177 0 16 7.9 16 16.137M111.888 43.92c1.34-2.678 1.741-6.762 1.741-11.316 0-8.034-2.477-15.934-6.695-15.934-2.076 0-3.347 1.54-4.151 3.213-1.339 2.678-1.807 6.762-1.807 11.248 0 8.035 2.476 16 6.762 16 2.075 0 3.347-1.609 4.151-3.215"></path>
    </g>
    <g data-name="Group 702">
      <path data-name="Path 614" d="M37.419 56.79h2.575c.943 0 1.751.387 1.751 1.364 0 1.053-.766 1.5-1.717 1.5h-1.427v1.485h.9v.454h-2.082v-.454h.606v-3.9h-.606Zm1.178 2.408h1.372c.8 0 1.169-.353 1.169-1.044 0-.631-.446-.909-1.212-.909h-1.33Z"></path>
      <path data-name="Path 615" d="m44.9 60.031-.4 1.11h.488v.454H43.52v-.456h.487l1.431-3.9h-.775v-.454h1.684l1.617 4.354h.488v.454h-1.583v-.454h.488l-.4-1.11Zm1.876-.455-.849-2.337-.859 2.332Z"></path>
      <path data-name="Path 616" d="M54.733 61.139v.454h-1.01l-.084-.143a12.835 12.835 0 0 0-.859-1.625 1.031 1.031 0 0 0-.4-.344h-1v1.658h.9v.454h-2.074v-.454h.611v-3.9h-.606v-.455h2.276c.942 0 1.75.353 1.75 1.33a1.335 1.335 0 0 1-1.161 1.3 1.272 1.272 0 0 1 .184.169 13.343 13.343 0 0 1 .868 1.558Zm-3.349-2.114h1.078c.8 0 1.169-.319 1.169-.908 0-.615-.429-.875-1.144-.875h-1.1Z"></path>
      <path data-name="Path 617" d="M60.852 56.79v1.557h-.514v-1.1h-1.27v3.9h1.026v.454h-2.629v-.462h1.026v-3.9H57.22v1.1h-.514V56.79Z"></path>
      <path data-name="Path 618" d="M65.766 57.244v-.455h1.667v.455h-.606v4.352h-.547l-2.315-4.267v3.81h.606v.455h-1.666v-.455h.605v-3.9h-.605v-.455h1.414l2.054 3.787v-3.327Z"></path>
      <path data-name="Path 619" d="M69.381 61.596v-.457h.606v-3.9h-.606v-.454h3.972v1.221h-.455v-.767h-2.34v1.676h1.364v-.476h.454v1.414h-.454v-.48h-1.363v1.766h2.506v-.934h.455v1.388Z"></path>
      <path data-name="Path 620" d="M80.299 61.139v.454h-1.01l-.084-.143a12.837 12.837 0 0 0-.859-1.625 1.031 1.031 0 0 0-.4-.344h-1v1.658h.9v.454h-2.074v-.454h.605v-3.9h-.605v-.455h2.28c.943 0 1.751.353 1.751 1.33a1.335 1.335 0 0 1-1.161 1.3 1.272 1.272 0 0 1 .184.169 13.345 13.345 0 0 1 .868 1.556Zm-3.349-2.114h1.078c.8 0 1.169-.319 1.169-.908 0-.615-.429-.875-1.145-.875h-1.1Z"></path>
      <path data-name="Path 621" d="M85.589 56.657h.454v1.414h-.4l-.034-.084a1.447 1.447 0 0 0-1.364-.875c-.74 0-1 .454-1 .833 0 .455.252.716 1.128.85 1.288.194 1.877.657 1.877 1.5 0 .784-.614 1.431-1.835 1.431a1.848 1.848 0 0 1-1.515-.572v.572h-.454v-1.5h.4l.034.093a1.573 1.573 0 0 0 1.532.951c.926 0 1.228-.48 1.228-.977 0-.446-.193-.757-1.356-.934-1.22-.193-1.649-.657-1.649-1.414a1.423 1.423 0 0 1 1.591-1.288 1.711 1.711 0 0 1 1.364.513Z"></path>
    </g>
  </g>
</svg>